<?xml version="1.0" encoding="utf-8"?>
<svg viewBox="0 0 1896 512" xmlns="http://www.w3.org/2000/svg">
  <path d="M 164.109 141.474 L 246.84 141.474 L 246.84 94.378 L 20 94.378 L 20 141.474 L 105.846 141.474 L 105.846 369.051 L 164.109 369.051 L 164.109 141.474 Z M 449.228 275.445 C 449.621 270.928 449.621 269.05 449.621 266.41 C 449.621 246.067 446.506 227.219 441.455 212.904 C 427.483 175.986 393.686 153.751 351.346 153.751 C 291.131 153.751 254.234 195.949 254.234 264.151 C 254.234 329.332 290.738 369.271 350.181 369.271 C 397.179 369.271 435.24 343.266 447.292 303.327 L 393.686 303.327 C 387.078 319.535 371.926 328.951 352.117 328.951 C 336.587 328.951 324.142 322.556 316.384 311.248 C 311.334 303.709 309.383 294.674 308.612 275.445 L 449.228 275.445 Z M 309.383 240.42 C 312.891 209.516 326.486 194.071 350.559 194.071 C 364.154 194.071 376.584 200.481 384.356 211.026 C 389.407 218.565 391.735 226.471 392.9 240.42 L 309.383 240.42 Z M 542.528 85.93 L 488.151 85.93 L 488.151 360.603 L 542.528 360.603 L 542.528 85.93 Z M 767.372 277.132 C 767.75 272.614 767.75 270.737 767.75 268.097 C 767.75 247.753 764.65 228.906 759.6 214.591 C 745.612 177.673 711.815 155.438 669.475 155.438 C 609.275 155.438 572.363 197.635 572.363 265.838 C 572.363 331.019 608.882 370.958 668.31 370.958 C 715.323 370.958 753.385 344.953 765.421 305.014 L 711.815 305.014 C 705.222 321.221 690.07 330.638 670.261 330.638 C 654.716 330.638 642.286 324.243 634.513 312.935 C 629.463 305.396 627.527 296.361 626.756 277.132 L 767.372 277.132 Z M 627.527 242.106 C 631.02 211.202 644.615 195.758 668.703 195.758 C 682.298 195.758 694.728 202.167 702.5 212.713 C 707.551 220.252 709.88 228.158 711.044 242.106 L 627.527 242.106 Z M 966.373 224.388 C 965.586 181.443 931.412 155.438 875.083 155.438 C 821.87 155.438 788.845 181.443 788.845 223.259 C 788.845 236.826 793.124 248.501 800.504 256.422 C 807.883 263.579 814.491 266.967 834.694 273.377 L 899.55 292.958 C 913.16 297.109 917.817 301.259 917.817 309.546 C 917.817 321.97 902.665 329.508 877.412 329.508 C 863.425 329.508 852.174 326.868 845.173 322.351 C 839.351 318.2 837.022 314.064 834.694 303.137 L 781.465 303.137 C 783.023 347.593 816.82 370.958 880.527 370.958 C 909.652 370.958 931.805 364.93 947.335 352.873 C 962.88 340.817 972.195 321.97 972.195 302.007 C 972.195 275.636 958.6 258.68 931.018 250.76 L 862.26 231.546 C 847.124 227.028 843.237 224.007 843.237 215.72 C 843.237 204.426 855.667 196.887 874.69 196.887 C 900.73 196.887 913.538 205.922 913.931 224.388 L 966.373 224.388 Z M 1182.718 233.247 C 1178.832 183.525 1144.642 153.751 1092.2 153.751 C 1029.672 153.751 993.153 193.69 993.153 263.022 C 993.153 330.081 1029.279 369.271 1091.429 369.271 C 1142.313 369.271 1177.667 338.749 1182.718 290.142 L 1130.654 290.142 C 1123.668 316.513 1112.796 326.692 1091.822 326.692 C 1064.24 326.692 1047.531 302.579 1047.531 263.022 C 1047.531 243.808 1051.417 225.723 1058.025 213.667 C 1064.24 202.358 1076.277 196.33 1091.822 196.33 C 1113.96 196.33 1124.439 206.509 1130.654 233.247 L 1182.718 233.247 Z M 1313.309 153.751 C 1249.208 153.751 1209.982 194.819 1209.982 261.511 C 1209.982 328.584 1249.208 369.271 1313.687 369.271 C 1377.394 369.271 1417.406 328.203 1417.406 263.022 C 1417.406 194.071 1378.952 153.751 1313.309 153.751 Z M 1313.687 196.33 C 1343.597 196.33 1363.028 222.32 1363.028 262.259 C 1363.028 300.321 1342.826 326.692 1313.687 326.692 C 1284.169 326.692 1264.36 300.321 1264.36 261.511 C 1264.36 222.702 1284.169 196.33 1313.687 196.33 Z M 1499.305 157.139 L 1444.927 157.139 L 1444.927 442.74 L 1499.305 442.74 L 1499.305 336.49 C 1512.521 359.092 1531.166 369.653 1557.583 369.653 C 1608.075 369.653 1645.365 323.686 1645.365 261.892 C 1645.365 233.247 1636.821 204.617 1622.833 185.784 C 1608.846 166.57 1582.821 153.751 1557.583 153.751 C 1531.166 153.751 1512.521 164.678 1499.305 187.28 L 1499.305 157.139 Z M 1545.153 197.841 C 1572.72 197.841 1590.987 223.831 1590.987 262.641 C 1590.987 299.573 1571.949 325.563 1545.153 325.563 C 1517.95 325.563 1499.305 299.939 1499.305 261.892 C 1499.305 223.831 1517.95 197.841 1545.153 197.841 Z M 1870.329 275.445 C 1870.722 270.928 1870.722 269.05 1870.722 266.41 C 1870.722 246.067 1867.622 227.219 1862.572 212.904 C 1848.584 175.986 1814.787 153.751 1772.447 153.751 C 1712.232 153.751 1675.336 195.949 1675.336 264.151 C 1675.336 329.332 1711.854 369.271 1771.282 369.271 C 1818.281 369.271 1856.357 343.266 1868.394 303.327 L 1814.787 303.327 C 1808.179 319.535 1793.027 328.951 1773.218 328.951 C 1757.688 328.951 1745.258 322.556 1737.486 311.248 C 1732.435 303.709 1730.499 294.674 1729.713 275.445 L 1870.329 275.445 Z M 1730.499 240.42 C 1733.992 209.516 1747.587 194.071 1771.676 194.071 C 1785.27 194.071 1797.7 200.481 1805.457 211.026 C 1810.508 218.565 1812.852 226.471 1814.016 240.42 L 1730.499 240.42 Z" style="fill: rgb(83, 82, 82); stroke-width: 20px;" transform="matrix(0.9999999999999999, 0, 0, 0.9999999999999999, -1.1368683772161603e-13, -2.842170943040401e-14)"/>
  <path d="M 95.846 379.051 L 95.846 151.474 L 10 151.474 L 10 84.378 L 256.84 84.378 L 256.84 151.474 L 174.109 151.474 L 174.109 379.051 L 95.846 379.051 Z M 154.109 131.474 L 236.84 131.474 L 236.84 104.378 L 30 104.378 L 30 131.474 L 115.846 131.474 L 115.846 359.051 L 154.109 359.051 L 154.109 131.474 Z M 319.127 285.445 C 319.899 296.191 320.37 299.836 324.657 305.636 C 330.578 315.325 338.872 318.951 352.117 318.951 C 360.721 318.951 366.724 317.337 372.596 313.709 C 378.375 310.14 381.941 306.307 384.426 299.552 L 386.716 293.327 L 460.952 293.327 L 456.866 306.216 C 450.034 327.766 435.677 347.157 417.466 359.544 C 399.345 371.871 375.142 379.271 350.181 379.271 C 318.538 379.271 290.513 367.59 272.532 347.897 C 254.645 328.307 244.234 298.382 244.234 264.151 C 244.234 228.465 254.665 197.308 272.695 176.777 C 290.853 156.101 319.246 143.751 351.346 143.751 C 373.918 143.751 395.817 150.148 412.529 161.125 C 429.293 172.137 443.113 189.746 450.885 209.577 C 456.154 224.74 459.621 245.252 459.621 266.41 C 459.621 269.05 459.602 271.361 459.19 276.312 L 458.431 285.445 L 319.127 285.445 Z M 298.165 265.445 L 439.619 265.445 C 439.529 246.316 436.778 229.476 432.025 216.231 C 425.825 199.144 415.761 187.177 401.548 177.841 C 387.283 168.471 371.114 163.751 351.346 163.751 C 323.231 163.751 303.068 172.5 287.723 189.974 C 272.251 207.592 264.234 231.635 264.234 264.151 C 264.234 295.101 272.075 317.736 287.301 334.411 C 302.433 350.983 322.381 359.271 350.181 359.271 C 372.218 359.271 390.545 353.669 406.217 343.008 C 421.799 332.408 426.927 325.48 432.835 313.327 L 399.73 313.327 C 395.502 320.376 391.509 325.534 383.108 330.725 C 374.8 335.857 363.322 338.951 352.117 338.951 C 334.302 338.951 317.734 329.832 308.138 316.905 C 302.355 307.639 299.5 295.93 298.62 275.846 L 298.165 265.445 Z M 299.447 239.292 C 301.478 222.673 306.725 208.107 314.776 199.023 C 323.084 189.65 336.626 184.071 350.559 184.071 C 366.446 184.071 383.159 193.438 392.664 205.46 C 398.357 214.37 401.514 224.643 402.865 239.588 L 403.845 250.42 L 298.087 250.42 L 299.447 239.292 Z M 381.73 230.42 C 380.737 224.659 380.687 223.085 376.278 216.917 C 370.242 207.88 361.862 204.071 350.559 204.071 C 340.419 204.071 335.127 206.214 329.743 212.29 C 324.101 218.655 322.806 222.362 321.034 230.42 L 381.73 230.42 Z M 478.151 370.603 L 478.151 75.93 L 552.528 75.93 L 552.528 370.603 L 478.151 370.603 Z M 532.528 95.93 L 498.151 95.93 L 498.151 350.603 L 532.528 350.603 L 532.528 95.93 Z M 637.27 287.132 C 638.039 297.884 638.5 301.528 642.784 307.319 C 648.724 317.014 657.003 320.638 670.261 320.638 C 678.865 320.638 684.867 319.024 690.737 315.397 C 696.513 311.827 700.075 307.998 702.552 301.246 L 704.838 295.014 L 771.004 295.014 L 770.901 293.137 L 842.982 293.137 L 844.475 301.053 C 846.269 310.569 846.608 311.667 850.928 314.179 C 856.374 317.873 864.567 319.508 877.412 319.508 C 889.122 319.508 896.921 318.059 902.648 315.224 C 907.596 312.775 907.817 312.735 907.817 309.546 C 907.817 307.156 908.241 308.169 907.079 307.117 C 905.34 305.544 902.855 304.376 896.66 302.531 L 831.67 282.909 C 810.698 276.182 801.766 271.256 793.188 263.239 C 784.771 253.63 778.845 238.547 778.845 223.259 C 778.845 200.162 789.205 178.884 805.826 165.808 C 822.169 152.951 847.033 145.438 875.083 145.438 C 904.628 145.438 930.474 152.88 947.591 165.835 C 965.021 179.027 975.438 200.563 976.371 224.205 L 976.773 234.388 L 909.586 234.388 L 933.778 241.148 C 948.774 245.635 961.825 253.338 969.747 263.203 C 977.733 273.147 982.195 287.325 982.195 302.007 C 982.195 324.185 970.427 346.982 953.465 360.774 C 936.182 373.705 910.965 380.958 880.527 380.958 C 847.508 380.958 820.115 374.375 802.031 361.963 C 786.294 351.162 776.223 334.124 772.716 314.321 C 765.25 333.275 751.99 350.087 735.606 361.232 C 717.485 373.558 693.278 380.958 668.31 380.958 C 636.675 380.958 608.65 369.277 590.667 349.584 C 572.778 329.995 562.363 300.069 562.363 265.838 C 562.363 230.151 572.799 198.994 590.83 178.463 C 608.989 157.787 637.382 145.438 669.475 145.438 C 692.047 145.438 713.946 151.835 730.659 162.812 C 747.425 173.823 761.25 191.435 769.03 211.264 C 774.299 226.431 777.75 246.941 777.75 268.097 C 777.75 270.737 777.733 273.031 777.337 277.966 L 776.603 287.132 L 637.27 287.132 Z M 616.309 267.132 L 757.748 267.132 C 757.659 247.998 754.921 231.159 750.17 217.918 C 743.962 200.829 733.894 188.864 719.68 179.529 C 705.413 170.158 689.243 165.438 669.475 165.438 C 641.368 165.438 621.205 174.187 605.858 191.661 C 590.383 209.279 582.363 233.322 582.363 265.838 C 582.363 296.788 590.208 319.422 605.435 336.098 C 620.569 352.67 640.517 360.958 668.31 360.958 C 690.355 360.958 708.685 355.355 724.357 344.695 C 739.939 334.096 745.066 327.167 750.969 315.014 L 717.863 315.014 C 713.64 322.063 709.651 327.22 701.251 332.41 C 692.945 337.543 681.466 340.638 670.261 340.638 C 652.429 340.638 635.878 331.521 626.272 318.6 C 620.487 309.326 617.642 297.609 616.764 277.533 L 616.309 267.132 Z M 617.59 240.983 C 619.614 224.363 624.857 209.794 632.908 200.71 C 641.217 191.336 654.763 185.758 668.703 185.758 C 684.589 185.758 701.302 195.123 710.808 207.147 C 716.501 216.056 719.659 226.329 721.009 241.274 L 721.988 252.106 L 616.236 252.106 L 617.59 240.983 Z M 699.875 232.106 C 698.881 226.346 698.831 224.773 694.422 218.604 C 688.386 209.566 680.007 205.758 668.703 205.758 C 658.555 205.758 653.259 207.902 647.875 213.976 C 642.234 220.34 640.94 224.047 639.172 232.106 L 699.875 232.106 Z M 903.933 224.601 C 904.228 217.425 902.687 215.059 898.183 211.898 C 893.208 208.405 886.577 206.887 874.69 206.887 C 866.344 206.887 861.176 208.119 856.981 210.64 C 853.345 212.824 853.237 212.827 853.237 215.72 C 853.237 216.621 853.153 216.994 853.085 217.133 C 853.151 217.14 853.259 217.187 853.426 217.324 C 855.107 218.707 857.938 219.837 865.023 221.935 L 903.6 232.715 L 903.933 224.601 Z M 955.703 214.388 C 953.64 200.515 949.457 192.329 935.521 181.782 C 921.273 170.999 901.867 165.438 875.083 165.438 C 849.92 165.438 831.665 170.927 818.192 181.527 C 804.997 191.907 798.845 204.54 798.845 223.259 C 798.845 235.105 801.477 243.372 807.821 249.605 C 814 255.902 818.27 257.745 837.63 263.818 L 902.44 283.385 C 909.855 285.691 916.503 288.673 920.496 292.285 C 925.064 296.418 927.817 303.649 927.817 309.546 C 927.817 318.781 920.462 328.722 911.521 333.148 C 903.358 337.188 890.955 339.508 877.412 339.508 C 862.283 339.508 848.321 335.937 839.752 330.754 C 832.475 324.985 829.976 320.861 827.201 313.137 L 792.272 313.137 C 794.51 327.403 798.677 335.404 813.349 345.474 C 828.48 355.858 849.839 360.958 880.527 360.958 C 908.339 360.958 927.426 356.156 941.203 344.974 C 955.329 334.654 962.195 319.755 962.195 302.007 C 962.195 290.318 959.86 282.832 954.153 275.726 C 948.382 268.54 940.844 263.805 928.258 260.372 L 859.569 241.177 C 851.589 238.775 844.765 236.097 840.719 232.769 C 835.833 228.749 833.237 221.489 833.237 215.72 C 833.237 207.319 839.344 197.905 846.679 193.497 C 853.455 189.425 864.013 186.887 874.69 186.887 C 888.843 186.887 901.636 189.886 909.673 195.528 C 918.182 201.5 919.8 206.852 922.132 214.388 L 955.703 214.388 Z M 1120.914 235.511 C 1118.12 223.07 1115.113 216.588 1110.302 211.993 C 1105.743 207.639 1101.401 206.33 1091.822 206.33 C 1078.516 206.33 1070.862 209.237 1066.789 218.482 C 1060.685 229.185 1057.531 244.858 1057.531 263.022 C 1057.531 281.531 1060.9 294.422 1067.545 303.984 C 1073.891 313.116 1080.422 316.692 1091.822 316.692 C 1100.787 316.692 1104.99 315.387 1109.634 311.02 C 1114.558 306.391 1117.835 299.852 1120.987 287.581 L 1122.898 280.142 L 1193.954 280.142 L 1192.664 291.176 C 1189.619 317.236 1178.057 340.558 1160.807 355.494 C 1143.597 370.395 1118.539 379.271 1091.429 379.271 C 1058.502 379.271 1029.903 367.842 1011.641 348.081 C 993.462 328.409 983.153 298.161 983.153 263.022 C 983.153 226.771 993.526 195.806 1011.827 175.662 C 1030.235 155.402 1059.066 143.751 1092.2 143.751 C 1120.046 143.751 1145.245 152.425 1162.258 167.332 C 1179.327 182.288 1190.269 205.837 1192.688 232.468 L 1193.666 243.247 L 1122.651 243.247 L 1120.914 235.511 Z M 1171.501 223.247 C 1168.475 205.745 1163.185 194.736 1149.077 182.375 C 1134.913 169.964 1116.796 163.751 1092.2 163.751 C 1062.806 163.751 1042.113 172.07 1026.63 189.112 C 1011.04 206.271 1003.153 229.941 1003.153 263.022 C 1003.153 294.942 1010.907 317.818 1026.329 334.507 C 1041.667 351.105 1062.206 359.271 1091.429 359.271 C 1115.203 359.271 1133.264 352.886 1147.715 340.374 C 1162.126 327.897 1167.714 317.172 1171.185 300.142 L 1138.05 300.142 C 1134.372 310.914 1130.835 318.539 1123.333 325.592 C 1115.551 332.908 1103.831 336.692 1091.822 336.692 C 1075.64 336.692 1060.026 328.211 1051.121 315.397 C 1042.516 303.014 1037.531 284.07 1037.531 263.022 C 1037.531 242.758 1042.144 222.269 1049.256 208.861 C 1057.614 195.489 1074.038 186.33 1091.822 186.33 C 1104.381 186.33 1116.347 190.11 1124.116 197.53 C 1131.633 204.71 1134.824 212.456 1138.251 223.247 L 1171.501 223.247 Z M 1427.406 263.022 C 1427.406 297.375 1415.962 327.722 1396.594 347.573 C 1377.202 367.449 1347.381 379.271 1313.687 379.271 C 1279.621 379.271 1249.765 367.538 1230.451 347.479 C 1211.179 327.463 1199.982 296.758 1199.982 261.511 C 1199.982 226.455 1211.173 195.763 1230.386 175.704 C 1249.643 155.6 1279.412 143.751 1313.309 143.751 C 1347.936 143.751 1377.925 155.391 1397.213 175.631 C 1416.448 195.816 1427.406 226.887 1427.406 263.022 Z M 1382.734 189.429 C 1366.384 172.271 1344.325 163.751 1313.309 163.751 C 1283.105 163.751 1261.211 172.436 1244.829 189.539 C 1228.404 206.687 1219.982 229.875 1219.982 261.511 C 1219.982 293.337 1228.398 316.512 1244.859 333.607 C 1261.278 350.66 1283.274 359.271 1313.687 359.271 C 1343.7 359.271 1365.739 350.559 1382.279 333.606 C 1398.844 316.627 1407.406 293.85 1407.406 263.022 C 1407.406 230.206 1399.137 206.642 1382.734 189.429 Z M 1313.687 186.33 C 1330.972 186.33 1347.699 195.118 1357.581 208.327 C 1367.22 221.211 1373.028 240.876 1373.028 262.259 C 1373.028 282.786 1366.958 302.118 1357.224 314.829 C 1347.274 327.821 1330.613 336.692 1313.687 336.692 C 1296.571 336.692 1279.88 327.8 1269.974 314.682 C 1260.294 301.863 1254.36 282.37 1254.36 261.511 C 1254.36 240.653 1260.294 221.16 1269.974 208.341 C 1279.88 195.222 1296.571 186.33 1313.687 186.33 Z M 1285.934 220.393 C 1278.331 230.463 1274.36 243.56 1274.36 261.511 C 1274.36 279.462 1278.331 292.56 1285.934 302.629 C 1293.312 312.399 1301.285 316.692 1313.687 316.692 C 1325.9 316.692 1333.91 312.377 1341.345 302.668 C 1348.997 292.678 1353.028 279.794 1353.028 262.259 C 1353.028 243.703 1349.12 230.404 1341.567 220.308 C 1334.256 210.537 1326.312 206.33 1313.687 206.33 C 1301.285 206.33 1293.312 210.624 1285.934 220.393 Z M 1509.305 160.702 C 1522.514 150.005 1528.638 143.751 1557.583 143.751 C 1585.03 143.751 1615.075 159.131 1630.9 179.876 C 1645.643 200.262 1655.365 231.817 1655.365 261.892 C 1655.365 294.424 1644.881 324.711 1628.165 345.256 C 1611.287 366.002 1585.148 379.653 1557.583 379.653 C 1528.702 379.653 1522.534 373.869 1509.305 363.11 L 1509.305 452.74 L 1434.927 452.74 L 1434.927 147.139 L 1509.305 147.139 L 1509.305 160.702 Z M 1489.305 226.261 L 1489.305 167.139 L 1454.927 167.139 L 1454.927 432.74 L 1489.305 432.74 L 1489.305 297.379 L 1507.938 331.442 C 1519.302 352.218 1533.63 359.653 1557.583 359.653 C 1580.51 359.653 1598.262 350.32 1612.652 332.634 C 1627.204 314.748 1635.365 291.154 1635.365 261.892 C 1635.365 234.677 1628.016 209.028 1614.805 191.747 C 1602.651 174.075 1580.612 163.751 1557.583 163.751 C 1533.694 163.751 1519.365 171.516 1507.938 192.328 L 1489.305 226.261 Z M 1545.153 187.841 C 1561.403 187.841 1577.335 196.83 1586.577 209.92 C 1595.551 222.63 1600.987 241.879 1600.987 262.641 C 1600.987 282.555 1595.279 301.398 1586.197 313.846 C 1576.874 326.624 1561.017 335.563 1545.153 335.563 C 1529.112 335.563 1513.218 326.723 1503.921 313.85 C 1494.882 301.334 1489.305 282.321 1489.305 261.892 C 1489.305 241.464 1494.87 222.375 1503.898 209.771 C 1513.183 196.808 1529.086 187.841 1545.153 187.841 Z M 1520.158 221.417 C 1513.062 231.323 1509.305 244.259 1509.305 261.892 C 1509.305 279.51 1513.051 292.332 1520.135 302.14 C 1526.961 311.591 1533.991 315.563 1545.153 315.563 C 1556.085 315.563 1563.145 311.507 1570.04 302.057 C 1577.176 292.277 1580.987 279.659 1580.987 262.641 C 1580.987 244.593 1577.289 231.442 1570.239 221.455 C 1563.455 211.847 1556.47 207.841 1545.153 207.841 C 1534.017 207.841 1526.996 211.869 1520.158 221.417 Z M 1740.235 285.445 C 1741.011 296.196 1741.472 299.841 1745.757 305.632 C 1751.696 315.326 1759.975 318.951 1773.218 318.951 C 1781.822 318.951 1787.825 317.337 1793.697 313.709 C 1799.476 310.14 1803.042 306.307 1805.527 299.552 L 1807.817 293.327 L 1882.049 293.327 L 1877.969 306.213 C 1871.144 327.765 1856.786 347.157 1838.573 359.545 C 1820.45 371.871 1796.243 379.271 1771.282 379.271 C 1739.647 379.271 1711.622 367.59 1693.639 347.897 C 1675.751 328.308 1665.336 298.382 1665.336 264.151 C 1665.336 228.465 1675.767 197.308 1693.797 176.777 C 1711.954 156.101 1740.347 143.751 1772.447 143.751 C 1795.019 143.751 1816.918 150.148 1833.631 161.125 C 1850.397 172.136 1864.222 189.748 1872.002 209.577 C 1877.271 224.744 1880.722 245.256 1880.722 266.41 C 1880.722 269.05 1880.703 271.361 1880.291 276.312 L 1879.532 285.445 L 1740.235 285.445 Z M 1719.258 265.445 L 1860.72 265.445 C 1860.631 246.312 1857.893 229.472 1853.142 216.231 C 1846.934 199.142 1836.866 187.177 1822.652 177.842 C 1808.385 168.471 1792.215 163.751 1772.447 163.751 C 1744.332 163.751 1724.17 172.5 1708.825 189.974 C 1693.353 207.592 1685.336 231.635 1685.336 264.151 C 1685.336 295.101 1693.181 317.735 1708.408 334.411 C 1723.541 350.983 1743.489 359.271 1771.282 359.271 C 1793.32 359.271 1811.651 353.668 1827.325 343.007 C 1842.908 332.408 1848.038 325.479 1853.942 313.327 L 1820.831 313.327 C 1816.603 320.376 1812.61 325.534 1804.208 330.725 C 1795.901 335.857 1784.423 338.951 1773.218 338.951 C 1755.401 338.951 1738.85 329.834 1729.245 316.912 C 1723.459 307.638 1720.614 295.926 1719.721 275.853 L 1719.258 265.445 Z M 1720.562 239.297 C 1722.586 222.677 1727.829 208.108 1735.881 199.023 C 1744.189 189.649 1757.735 184.071 1771.676 184.071 C 1787.562 184.071 1804.272 193.434 1813.765 205.46 C 1819.456 214.361 1822.628 224.634 1823.981 239.588 L 1824.961 250.42 L 1719.208 250.42 L 1720.562 239.297 Z M 1802.842 230.42 C 1801.843 224.661 1801.784 223.086 1797.373 216.909 C 1791.354 207.876 1782.978 204.071 1771.676 204.071 C 1761.528 204.071 1756.232 206.215 1750.847 212.29 C 1745.207 218.654 1743.912 222.361 1742.144 230.42 L 1802.842 230.42 Z" style="fill: rgb(83, 82, 82);" transform="matrix(0.9999999999999999, 0, 0, 0.9999999999999999, -1.1368683772161603e-13, -2.842170943040401e-14)"/>
</svg>