<?xml version="1.0" encoding="utf-8"?>
<svg viewBox="0 0 512 512" xmlns="http://www.w3.org/2000/svg">
  <path d="M 497.705 256.619 C 497.705 390.366 389.282 498.789 255.535 498.789 C 121.788 498.789 13.365 390.366 13.365 256.619 C 13.365 122.872 121.788 14.449 255.535 14.449 C 389.282 14.449 497.705 122.872 497.705 256.619 Z" style="fill: rgb(88, 88, 88); paint-order: stroke; stroke-width: 26px; stroke: rgb(179, 179, 179);" transform="matrix(1, 0, 0, 1, 1.4210854715202004e-14, 0)">
    <title>background-circle</title>
  </path>
  <path d="M 440.732 75.285 C 442.439 79.364 452.116 102.607 462.266 126.987 C 474.854 157.384 480.105 169.382 480.105 169.382 C 480.105 169.382 483.307 165.096 484.56 159.052 C 491.106 126.703 472.417 86.005 444.052 70.827 C 441.111 69.309 438.455 67.981 438.076 67.981 C 437.791 67.981 439.024 71.301 440.732 75.285 Z" style="fill: rgb(98, 203, 241);" transform="matrix(1, 0, 0, 1, 1.4210854715202004e-14, 0)">
    <title>glass</title>
  </path>
  <path d="M 898.817 190.054 H 1170.292 V 288.031 H 898.817 V 190.054 Z" style="fill: rgb(230, 230, 230);" transform="matrix(0.922988, -0.384829, 0.384829, 0.922988, -783.240001, 377.728006)">
    <title>telescope-rectangle-1</title>
  </path>
  <g transform="matrix(0.09486600011587143, 0, 0, -0.09486600011587143, 13.104539871215835, 499.02963256835943)" fill="#fefefe" stroke="none" style="">
    <title>stars-grouping</title>
    <path d="M2426 5010 c-3 -25 -15 -126 -26 -224 -11 -99 -21 -181 -23 -182 -1 -1 -98 -13 -214 -25 -284 -31 -283 -34 31 -68 98 -11 180 -22 182 -24 2 -2 15 -99 28 -216 32 -289 33 -289 66 19 12 107 23 196 25 198 1 2 98 14 215 27 289 33 289 33 -10 65 -113 12 -206 23 -207 24 -1 1 -11 89 -23 196 -25 236 -34 277 -44 210z" style="fill: rgb(255, 255, 255);"/>
    <path d="M3630 4535 c-34 -35 -34 -35 6 -75 40 -40 40 -40 79 0 39 40 39 40 5 75 -42 43 -48 43 -90 0z" style="fill: rgb(255, 255, 255);"/>
    <path d="M1237 4362 c-37 -38 -37 -38 1 -75 38 -37 38 -37 75 1 37 38 37 38 -1 75 -38 37 -38 37 -75 -1z" style="fill: rgb(255, 255, 255);"/>
    <path d="M2832 4187 c-40 -41 -40 -45 3 -87 35 -34 35 -34 70 0 43 42 43 48 2 88 -40 39 -36 39 -75 -1z" style="fill: rgb(255, 255, 255);"/>
    <path d="M1207 3758 c-4 -18 -9 -66 -13 -105 -7 -82 -3 -78 -109 -88 -162 -14 -165 -28 -12 -45 114 -12 114 -12 124 -111 10 -96 16 -119 30 -106 3 4 11 51 16 106 10 99 10 99 124 111 153 17 150 31 -12 45 -106 10 -102 6 -109 88 -9 97 -17 137 -26 137 -4 0 -10 -15 -13 -32z" style="fill: rgb(255, 255, 255);"/>
    <path d="M4049 2594 c-34 -35 -34 -35 3 -70 46 -42 46 -42 88 1 34 35 34 35 0 70 -42 43 -48 43 -91 -1z" style="fill: rgb(255, 255, 255);"/>
    <path d="M4755 2570 c-58 -60 10 -138 70 -80 43 42 43 48 2 88 -33 32 -33 32 -72 -8z" style="fill: rgb(255, 255, 255);"/>
    <path d="M1365 2060 c-58 -60 10 -138 70 -80 43 42 43 48 2 88 -33 32 -33 32 -72 -8z" style="fill: rgb(255, 255, 255);"/>
    <path d="M3130 2035 c-34 -35 -34 -35 3 -73 37 -37 37 -37 74 0 37 38 37 38 3 73 -19 19 -37 35 -40 35 -3 0 -21 -16 -40 -35z" style="fill: rgb(255, 255, 255);"/>
    <path d="M1896 1729 c-3 -19 -12 -94 -21 -168 -17 -159 7 -135 -158 -153 -202 -22 -202 -34 0 -55 165 -18 140 10 162 -182 26 -224 28 -222 56 28 17 159 -7 136 158 154 202 21 202 33 0 55 -76 8 -139 16 -141 17 -2 1 -11 75 -21 164 -20 169 -26 195 -35 140z" style="fill: rgb(255, 255, 255);"/>
    <path d="M4410 1595 c-34 -35 -34 -35 3 -73 37 -37 37 -37 74 0 37 38 37 38 3 73 -19 19 -37 35 -40 35 -3 0 -21 -16 -40 -35z" style="fill: rgb(255, 255, 255);"/>
    <path d="M432 1537 c-40 -41 -40 -45 3 -87 35 -34 35 -34 70 0 43 42 43 48 2 88 -40 39 -36 39 -75 -1z" style="fill: rgb(255, 255, 255);"/>
    <path d="M2837 762 c-37 -38 -37 -38 1 -75 58 -56 138 20 82 78 -42 43 -38 43 -83 -3z" style="fill: rgb(255, 255, 255);"/>
  </g>
  <path style="fill: rgb(179, 179, 179);" d="M 258.477 248.756 L 205.235 493.504 C 211.682 494.884 226.495 497.64 241.323 498.353 L 263.444 392.923 L 347.065 391.616 L 364.83 472.719 C 372.832 469.76 392.716 456.45 396.868 453.256 L 352.009 247.886 C 346.98 262.909 340.316 272.499 324.836 280.01 L 340.065 357.23 L 271.37 357.757 C 271.37 357.757 285.803 280.132 285.43 279.942 C 265.095 269.601 259.793 254.946 258.477 248.756 Z" transform="matrix(1, 0, 0, 1, 1.4210854715202004e-14, 0)">
    <title>telescope-base</title>
  </path>
  <path style="fill: rgb(153, 153, 153);" d="M 324.397 277.867 C 330.296 275.142 335.583 271.458 340.21 266.522 C 344.837 261.587 348.806 255.401 352.065 247.672 L 354.969 261.2 L 357.872 274.728 C 355.17 280.051 351.12 284.837 346.084 288.883 C 341.047 292.929 335.026 296.235 328.381 298.597 L 324.397 277.867 Z" transform="matrix(1, 0, 0, 1, 1.4210854715202004e-14, 0)">
    <title>shadow-telescope-base</title>
  </path>
  <path style="fill: rgb(153, 153, 153);" d="M 282.224 298.486 C 276.607 296.371 271.34 293.62 266.413 289.908 C 261.487 286.196 256.899 281.525 252.64 275.569 L 255.553 262.168 L 258.465 248.767 C 261.258 257 265.023 263.174 269.628 267.929 C 274.235 272.684 279.683 276.019 285.845 278.575 L 282.224 298.486 Z" transform="matrix(1, 0, 0, 1, 1.4210854715202004e-14, 0)"/>
  <path style="fill: rgb(204, 204, 204);" d="M 127.343 226.059 L 157.219 297.787 L 407.598 193.156 L 398.315 170.714 C 397.997 174.815 215.972 255.191 183.72 254.488 C 162.679 254.029 140.831 243.226 127.343 226.059 Z" transform="matrix(1, 0, 0, 1, 1.4210854715202004e-14, 0)">
    <title>shadow-trectangle-1</title>
  </path>
  <path d="M 353.497 235.811 A 48.404 48.404 0 0 1 305.093 284.215 A 48.404 48.404 0 0 1 256.689 235.811 A 48.404 48.404 0 0 1 305.093 187.407 A 48.404 48.404 0 0 1 353.497 235.811 Z" style="fill: rgb(82, 137, 226);" transform="matrix(1, 0, 0, 1, 1.4210854715202004e-14, 0)">
    <title>base-circle-1</title>
  </path>
  <path d="M 329.71 235.935 A 24.564 24.564 0 0 1 305.146 260.499 A 24.564 24.564 0 0 1 280.582 235.935 A 24.564 24.564 0 0 1 305.146 211.371 A 24.564 24.564 0 0 1 329.71 235.935 Z" style="fill: rgb(230, 230, 230);" transform="matrix(1, 0, 0, 1, 1.4210854715202004e-14, 0)">
    <title>base-cicle-2</title>
  </path>
  <path d="M 305.429 211.291 C 303.719 211.321 302.908 211.065 305.27 211.952 C 316.337 216.11 318.799 236.77 312.159 247.964 C 309.408 252.708 302.667 258.91 299.539 259.049 C 298.343 259.102 297.63 259.493 299.918 259.997 C 313.928 263.085 328.407 253.402 329.582 237.956 C 331.026 218.992 314.42 211.13 305.429 211.291 Z" style="fill: rgb(204, 204, 204);" transform="matrix(1, 0, 0, 1, 1.4210854715202004e-14, 0)">
    <title>shadow-base-circle-2</title>
  </path>
  <path d="M 251.657 264.123 H 327.666 V 400.284 H 251.657 V 264.123 Z" style="fill: rgb(82, 137, 226);" transform="matrix(0.922988, -0.384829, 0.384829, 0.922988, 29.015812, -61.164351)">
    <title>telescope-rectangle-2</title>
  </path>
  <path d="M 244.477 107.305 H 318.318 V 162.622 H 244.477 V 107.305 Z" style="fill: rgb(82, 137, 226);" transform="matrix(0.922988, -0.384829, 0.384829, 0.922988, -207.452592, 250.27007)">
    <title>telescope-rectangle-3</title>
  </path>
  <path d="M 74.186 154.852 H 96.593 V 234.681 H 74.186 V 154.852 Z" style="fill: rgb(229, 229, 230);" transform="matrix(0.922988, -0.384829, 0.384829, 0.922988, -94.21068, 137.688152)">
    <title>telescope-rectangle-4</title>
  </path>
  <path d="M 73.954 57.265 H 96.291 V 86.787 H 73.954 V 57.265 Z" style="fill: rgb(204, 204, 204);" transform="matrix(0.922988, -0.384829, 0.384829, 0.922988, -37.078296, 274.105469)">
    <title>shadow-rectangle-4</title>
  </path>
  <path style="fill: rgb(67, 121, 201);" d="M 65.162 268.909 L 80.715 306.353 L 148.911 277.879 L 143.684 265.336 C 143.526 267.528 109.003 283.511 92.943 283.135 C 82.466 282.89 71.879 278.084 65.162 268.909 Z" transform="matrix(1, 0, 0, 1, 1.4210854715202004e-14, 0)">
    <title>shadow-rectangle-3</title>
  </path>
  <path style="fill: rgb(67, 121, 201);" d="M 366.785 94.975 L 415.153 211.551 L 465.275 190.59 C 426.199 192.89 380.464 128.313 366.785 94.975 Z" transform="matrix(1, 0, 0, 1, 1.4210854715202004e-14, 0)">
    <title>shadow-rectangle-2</title>
  </path>
</svg>